<svg width="14" height="13" viewBox="0 0 14 13" fill="none" xmlns="http://www.w3.org/2000/svg">
<g clip-path="url(#clip0_206_552)">
<path d="M8.17046 10.2917C10.2185 10.2917 11.2429 10.2917 11.8788 9.65683C12.5154 9.02254 12.5154 8.00096 12.5154 5.95833C12.5154 3.91571 12.5154 2.89412 11.8788 2.25983C11.2429 1.625 10.2185 1.625 8.17046 1.625H5.998C3.94991 1.625 2.92559 1.625 2.28961 2.25983C1.65308 2.89412 1.65308 3.91571 1.65308 5.95833C1.65308 8.00096 1.65308 9.02254 2.28961 9.65683C2.64426 10.0111 3.11949 10.1676 3.82554 10.2364" stroke="black" stroke-linecap="round" stroke-linejoin="round"/>
<path d="M8.17046 10.2915C7.49917 10.2915 6.75944 10.5623 6.08435 10.9117C4.99921 11.4734 4.45664 11.7545 4.18942 11.5753C3.92221 11.3965 3.97272 10.8413 4.07428 9.73142L4.09709 9.479" stroke="black" stroke-linecap="round"/>
</g>
<defs>
<clipPath id="clip0_206_552">
<rect width="13.0348" height="13" fill="white" transform="translate(0.566849)"/>
</clipPath>
</defs>
</svg>
