<svg width="14" height="13" viewBox="0 0 14 13" fill="none" xmlns="http://www.w3.org/2000/svg">
<path d="M10.4253 8.42969C10.0626 8.42969 9.72777 8.55664 9.46555 8.76865L6.82805 6.86562C6.87221 6.62386 6.87221 6.37614 6.82805 6.13438L9.46555 4.23135C9.72777 4.44336 10.0626 4.57031 10.4253 4.57031C11.268 4.57031 11.9528 3.8873 11.9528 3.04688C11.9528 2.20645 11.268 1.52344 10.4253 1.52344C9.58266 1.52344 8.89782 2.20645 8.89782 3.04688C8.89782 3.19414 8.91819 3.33506 8.95765 3.46963L6.45253 5.27871C6.08084 4.7874 5.4902 4.46875 4.82446 4.46875C3.6992 4.46875 2.78778 5.37773 2.78778 6.5C2.78778 7.62227 3.6992 8.53125 4.82446 8.53125C5.4902 8.53125 6.08084 8.2126 6.45253 7.72129L8.95765 9.53037C8.91819 9.66494 8.89782 9.80713 8.89782 9.95312C8.89782 10.7936 9.58266 11.4766 10.4253 11.4766C11.268 11.4766 11.9528 10.7936 11.9528 9.95312C11.9528 9.1127 11.268 8.42969 10.4253 8.42969ZM10.4253 2.38672C10.7907 2.38672 11.0873 2.68252 11.0873 3.04688C11.0873 3.41123 10.7907 3.70703 10.4253 3.70703C10.06 3.70703 9.76341 3.41123 9.76341 3.04688C9.76341 2.68252 10.06 2.38672 10.4253 2.38672ZM4.82446 7.61719C4.20709 7.61719 3.70429 7.11572 3.70429 6.5C3.70429 5.88428 4.20709 5.38281 4.82446 5.38281C5.44183 5.38281 5.94464 5.88428 5.94464 6.5C5.94464 7.11572 5.44183 7.61719 4.82446 7.61719ZM10.4253 10.6133C10.06 10.6133 9.76341 10.3175 9.76341 9.95312C9.76341 9.58877 10.06 9.29297 10.4253 9.29297C10.7907 9.29297 11.0873 9.58877 11.0873 9.95312C11.0873 10.3175 10.7907 10.6133 10.4253 10.6133Z" fill="black"/>
</svg>
