<svg width="25" height="20" viewBox="0 0 25 20" fill="none" xmlns="http://www.w3.org/2000/svg">
<path d="M16.0054 13.9995L12.0054 9.99902L8.00537 13.9995" stroke="#FF5757" stroke-width="2" stroke-linecap="round" stroke-linejoin="round"/>
<path d="M12.0054 9.99902V19.0001" stroke="#FF5757" stroke-width="2" stroke-linecap="round" stroke-linejoin="round"/>
<path d="M20.3953 16.3894C21.3707 15.8576 22.1412 15.0161 22.5852 13.9978C23.0292 12.9794 23.1215 11.8421 22.8475 10.7654C22.5735 9.68875 21.9488 8.734 21.072 8.05185C20.1952 7.3697 19.1162 6.99901 18.0053 6.99828H16.7453C16.4426 5.82737 15.8785 4.74033 15.0953 3.81888C14.3121 2.89743 13.3302 2.16554 12.2234 1.67823C11.1167 1.19093 9.91388 0.960897 8.70545 1.00543C7.49701 1.04995 6.3144 1.36789 5.24651 1.93532C4.17862 2.50276 3.25324 3.30493 2.53995 4.28153C1.82666 5.25812 1.34402 6.38374 1.12831 7.57374C0.912601 8.76374 0.969437 9.98717 1.29454 11.152C1.61965 12.3169 2.20457 13.3929 3.00533 14.2992" stroke="#FF5757" stroke-width="2" stroke-linecap="round" stroke-linejoin="round"/>
<path d="M16.0054 13.9995L12.0054 9.99902L8.00537 13.9995" stroke="#FF5757" stroke-width="2" stroke-linecap="round" stroke-linejoin="round"/>
</svg>
